# File created by Blade
# Date/Time:  Thu Sep 25 19:43:58 2014
# Frame Rate: 120.000 fps
#------------------------------------------------------
:FULLY-SPECIFIED
:DEGREES
655
root 3.284028 13.427632 -9.324223 10.103059 16.477501 -23.255826
Spine 0.576811 1.365768 -38.162153
Head -29.462843 -14.819812 -34.699187
LeftShoulder -2.911957 8.818666 19.541448
LeftArm 14.821625 -6.983149 -56.892199
LeftForeArm 39.295591 -0.000000 15.818408
LeftHand -31.697977 -0.000000 110.773040
LeftHandThumb1 -26.253704 0.000000 33.147579
RightShoulder -24.775389 35.606019 -65.200881
RightArm 72.971561 32.886201 48.564916
RightForeArm 26.960743 -0.000000 22.241511
RightHand 3.077112 -0.000000 -2.835298
RightHandThumb1 -24.326973 -0.000000 -32.862282
LeftUpLeg -111.186793 45.664857 22.800170
LeftLeg 127.492441 -0.000000 -0.000000
LeftFoot -29.187277 -18.052320 -13.301255
LeftToeBase 2.445492 -0.000000 -0.000000
RightUpLeg -2.698183 -22.751310 -38.898646
RightLeg 7.679973 -0.000000 -0.000000
RightFoot 8.253554 -19.372961 -1.369930
RightToeBase 7.803422 -0.000000 -0.000000
656
root 3.282669 13.431450 -9.328926 10.131075 16.511786 -23.290093
Spine 0.632069 1.431866 -38.104249
Head -30.317504 -15.745665 -34.441973
LeftShoulder -2.893994 8.748270 19.487091
LeftArm 14.874717 -6.940808 -56.846930
LeftForeArm 39.287740 -0.000000 15.824718
LeftHand -31.712804 0.000000 110.810185
LeftHandThumb1 -26.253704 0.000000 33.147579
RightShoulder -24.791035 35.623119 -65.253708
RightArm 73.072158 32.784872 48.617426
RightForeArm 26.858363 -0.000000 22.276757
RightHand 3.044064 -0.000000 -2.838246
RightHandThumb1 -24.326973 -0.000000 -32.862282
LeftUpLeg -111.252653 45.634196 22.778682
LeftLeg 127.472284 -0.000000 -0.000000
LeftFoot -29.215074 -18.016262 -13.284218
LeftToeBase 2.442049 -0.000000 -0.000000
RightUpLeg -2.693778 -22.822489 -38.846751
RightLeg 7.625937 -0.000000 -0.000000
RightFoot 8.305836 -19.333550 -1.421904
RightToeBase 7.810585 -0.000000 -0.000000
657
root 3.281998 13.435138 -9.334128 10.161941 16.527688 -23.316211
Spine 0.670300 1.502630 -38.071945
Head -30.936068 -16.500259 -34.138375
LeftShoulder -2.876783 8.697069 19.469405
LeftArm 14.937653 -6.915026 -56.838363
LeftForeArm 39.295528 -0.000000 15.825646
LeftHand -31.720923 -0.000000 110.812677
LeftHandThumb1 -26.253704 0.000000 33.147579
RightShoulder -24.808762 35.628462 -65.286641
RightArm 73.101118 32.644584 48.568330
RightForeArm 26.672582 -0.000000 22.339803
RightHand 3.049623 0.000000 -2.841060
RightHandThumb1 -24.326973 -0.000000 -32.862282
LeftUpLeg -111.299222 45.621614 22.767750
LeftLeg 127.450781 -0.000000 -0.000000
LeftFoot -29.222854 -18.022988 -13.296754
LeftToeBase 2.469208 -0.000000 -0.000000
RightUpLeg -2.709060 -22.840263 -38.800852
RightLeg 7.588352 -0.000000 -0.000000
RightFoot 8.306380 -19.344623 -1.400718
RightToeBase 7.751757 -0.000000 -0.000000
658
root 3.283570 13.451542 -9.348150 10.308516 16.573132 -23.214845
Spine 0.684099 1.495187 -38.268463
Head -31.624464 -17.240304 -33.625333
LeftShoulder -2.845837 8.578398 19.556228
LeftArm 14.940163 -6.831134 -56.786570
LeftForeArm 39.257760 -0.000000 15.832795
LeftHand -31.693537 -0.000000 110.775489
LeftHandThumb1 -26.253704 0.000000 33.147579
RightShoulder -24.956200 35.893581 -65.510484
RightArm 72.856264 32.402686 48.745782
RightForeArm 26.568398 0.000000 22.559742
RightHand 2.867362 -0.000000 -2.599726
RightHandThumb1 -24.326973 -0.000000 -32.862282
LeftUpLeg -111.502099 45.567628 22.561948
LeftLeg 127.407385 -0.000000 -0.000000
LeftFoot -28.924364 -18.106396 -13.463143
LeftToeBase 2.438958 -0.000000 -0.000000
RightUpLeg -2.784709 -22.916511 -38.841618
RightLeg 7.568271 -0.000000 -0.000000
RightFoot 8.369617 -19.364926 -1.480307
RightToeBase 7.717467 -0.000000 -0.000000
659
root 3.284198 13.454786 -9.353965 10.329010 16.600828 -23.229625
Spine 0.756091 1.555535 -38.246610
Head -32.335140 -18.019587 -33.265733
LeftShoulder -2.850120 8.497639 19.537932
LeftArm 14.998413 -6.777658 -56.770155
LeftForeArm 39.240906 -0.000000 15.833722
LeftHand -31.704050 0.000000 110.801715
LeftHandThumb1 -26.253704 0.000000 33.147579
RightShoulder -25.005252 36.012660 -65.588322
RightArm 72.811122 32.253853 48.662399
RightForeArm 26.503124 0.000000 22.592859
RightHand 2.871153 -0.000000 -2.436526
RightHandThumb1 -24.326973 -0.000000 -32.862282
LeftUpLeg -111.546341 45.526233 22.534060
LeftLeg 127.386874 -0.000000 -0.000000
LeftFoot -28.968066 -18.065580 -13.443773
LeftToeBase 2.465812 -0.000000 -0.000000
RightUpLeg -2.787655 -22.969980 -38.814167
RightLeg 7.548110 -0.000000 -0.000000
RightFoot 8.394369 -19.314382 -1.598511
RightToeBase 7.733430 -0.000000 -0.000000
660
root 3.285072 13.457375 -9.359519 10.348766 16.611783 -23.240776
Spine 0.814201 1.620798 -38.228963
Head -33.007879 -18.748321 -32.868586
LeftShoulder -2.830845 8.416087 19.527485
LeftArm 15.015218 -6.753634 -56.764441
LeftForeArm 39.221636 -0.000000 15.852009
LeftHand -31.722195 -0.000000 110.798494
LeftHandThumb1 -26.253704 0.000000 33.147579
RightShoulder -24.996251 36.043733 -65.611295
RightArm 72.857359 32.208492 48.640839
RightForeArm 26.642811 -0.000000 22.599439
RightHand 2.895492 0.000000 -2.176974
RightHandThumb1 -24.326973 -0.000000 -32.862282
LeftUpLeg -111.576127 45.501826 22.515061
LeftLeg 127.371497 -0.000000 -0.000000
LeftFoot -28.989487 -18.052889 -13.462556
LeftToeBase 2.434775 -0.000000 -0.000000
RightUpLeg -2.800807 -23.000917 -38.791427
RightLeg 7.529628 -0.000000 -0.000000
RightFoot 8.400935 -19.324140 -1.520928
RightToeBase 7.659493 -0.000000 -0.000000
661
root 3.286406 13.460468 -9.366029 10.371354 16.606234 -23.249988
Spine 0.853730 1.684245 -38.205425
Head -33.704248 -19.300310 -32.536924
LeftShoulder -2.813914 8.356153 19.488944
LeftArm 15.045465 -6.751177 -56.737288
LeftForeArm 39.240227 -0.000000 15.840458
LeftHand -31.703373 -0.000000 110.790400
LeftHandThumb1 -26.253704 0.000000 33.147579
RightShoulder -24.987004 36.063783 -65.659664
RightArm 72.892434 32.157609 48.625118
RightForeArm 26.588657 -0.000000 22.589817
RightHand 2.931115 -0.000000 -1.976097
RightHandThumb1 -24.326973 -0.000000 -32.862282
LeftUpLeg -111.609903 45.493678 22.491785
LeftLeg 127.358696 -0.000000 -0.000000
LeftFoot -29.002642 -18.030060 -13.469570
LeftToeBase 2.504271 -0.000000 -0.000000
RightUpLeg -2.840596 -23.003245 -38.761853
RightLeg 7.526119 -0.000000 -0.000000
RightFoot 8.415160 -19.353502 -1.572031
RightToeBase 7.671752 -0.000000 -0.000000
662
root 3.288287 13.463670 -9.371656 10.385069 16.596810 -23.256095
Spine 0.898442 1.749884 -38.199636
Head -34.267310 -19.873093 -32.203116
LeftShoulder -2.813561 8.260976 19.470014
LeftArm 15.052360 -6.672208 -56.699695
LeftForeArm 39.183999 -0.000000 15.840135
LeftHand -31.678067 0.000000 110.802652
LeftHandThumb1 -26.253704 0.000000 33.147579
RightShoulder -24.981971 36.079809 -65.680278
RightArm 72.920837 32.093011 48.535359
RightForeArm 26.414158 -0.000000 22.570275
RightHand 2.873176 0.000000 -1.956458
RightHandThumb1 -24.326973 -0.000000 -32.862282
LeftUpLeg -111.617597 45.486261 22.484856
LeftLeg 127.350944 -0.000000 -0.000000
LeftFoot -28.999440 -18.029345 -13.480430
LeftToeBase 2.521361 -0.000000 -0.000000
RightUpLeg -2.871687 -23.016380 -38.743264
RightLeg 7.520796 -0.000000 -0.000000
RightFoot 8.454206 -19.337075 -1.625363
RightToeBase 7.529994 -0.000000 -0.000000
663
root 3.290094 13.467775 -9.377509 10.398594 16.581683 -23.273620
Spine 0.934321 1.797304 -38.176207
Head -34.746321 -20.395370 -31.908497
LeftShoulder -2.814491 8.223298 19.425896
LeftArm 15.084406 -6.624068 -56.649291
LeftForeArm 39.133748 -0.000000 15.839127
LeftHand -31.664870 -0.000000 110.859402
LeftHandThumb1 -26.253704 0.000000 33.147579
RightShoulder -24.866258 35.844889 -65.426072
RightArm 73.324172 32.226278 48.476887
RightForeArm 26.525607 -0.000000 22.459079
RightHand 2.828432 -0.000000 -1.864836
RightHandThumb1 -24.326973 -0.000000 -32.862282
LeftUpLeg -111.629831 45.477220 22.483090
LeftLeg 127.343639 -0.000000 -0.000000
LeftFoot -29.011105 -17.982395 -13.480075
LeftToeBase 2.487361 -0.000000 -0.000000
RightUpLeg -2.910650 -23.044994 -38.706634
RightLeg 7.507534 -0.000000 -0.000000
RightFoot 8.479650 -19.314532 -1.682177
RightToeBase 7.606663 -0.000000 -0.000000
664
root 3.292125 13.467960 -9.382285 10.403528 16.563246 -23.280306
Spine 0.969171 1.848732 -38.166816
Head -35.163615 -20.840134 -31.624103
LeftShoulder -2.816717 8.232209 19.416880
LeftArm 15.162986 -6.619649 -56.654269
LeftForeArm 39.131900 0.000000 15.805015
LeftHand -31.659006 -0.000000 110.887073
LeftHandThumb1 -26.253704 0.000000 33.147579
RightShoulder -24.992550 36.064026 -65.661185
RightArm 73.112210 31.992447 48.470585
RightForeArm 26.378942 -0.000000 22.544382
RightHand 2.858591 0.000000 -1.850199
RightHandThumb1 -24.326973 -0.000000 -32.862282
LeftUpLeg -111.639185 45.484174 22.478630
LeftLeg 127.345694 -0.000000 -0.000000
LeftFoot -29.019018 -17.961733 -13.475162
LeftToeBase 2.512656 -0.000000 -0.000000
RightUpLeg -2.937032 -23.070920 -38.693691
RightLeg 7.499262 -0.000000 -0.000000
RightFoot 8.535408 -19.273242 -1.781983
RightToeBase 7.486764 -0.000000 -0.000000
665
root 3.293877 13.470503 -9.386629 10.408883 16.546769 -23.308357
Spine 0.981567 1.868851 -38.122433
Head -35.477527 -21.238482 -31.399646
LeftShoulder -2.811158 8.298952 19.366014
LeftArm 15.237358 -6.623146 -56.620932
LeftForeArm 39.069266 -0.000000 15.797984
LeftHand -31.622691 0.000000 110.884268
LeftHandThumb1 -26.253704 0.000000 33.147579
RightShoulder -24.887488 35.913582 -65.487735
RightArm 73.461027 32.087378 48.523904
RightForeArm 26.326975 0.000000 22.452580
RightHand 2.820501 0.000000 -1.929605
RightHandThumb1 -24.326973 -0.000000 -32.862282
LeftUpLeg -111.649853 45.495666 22.488032
LeftLeg 127.340684 -0.000000 -0.000000
LeftFoot -29.022663 -17.950403 -13.485206
LeftToeBase 2.533068 -0.000000 -0.000000
RightUpLeg -2.964606 -23.136245 -38.651869
RightLeg 7.474805 -0.000000 -0.000000
RightFoot 8.571947 -19.219702 -1.841915
RightToeBase 7.478809 -0.000000 -0.000000
666
root 3.296717 13.471239 -9.390716 10.408808 16.527379 -23.324923
Spine 1.006069 1.883592 -38.093551
Head -35.762644 -21.534061 -31.184789
LeftShoulder -2.801624 8.329934 19.350280
LeftArm 15.272482 -6.569617 -56.600373
LeftForeArm 38.992016 -0.000000 15.770039
LeftHand -31.659134 -0.000000 110.904105
LeftHandThumb1 -26.253704 0.000000 33.147579
RightShoulder -24.904646 35.926584 -65.498893
RightArm 73.587687 32.032982 48.592132
RightForeArm 26.254495 -0.000000 22.458231
RightHand 2.732189 -0.000000 -2.141120
RightHandThumb1 -24.326973 -0.000000 -32.862282
LeftUpLeg -111.655978 45.502759 22.495180
LeftLeg 127.346344 -0.000000 -0.000000
LeftFoot -29.008423 -17.951846 -13.501662
LeftToeBase 2.516816 -0.000000 -0.000000
RightUpLeg -2.988132 -23.184025 -38.626805
RightLeg 7.459837 -0.000000 -0.000000
RightFoot 8.573692 -19.185233 -1.870268
RightToeBase 7.415714 -0.000000 -0.000000
